<svg xmlns="http://www.w3.org/2000/svg" width="568.71051" height="100.32875" viewBox="0 0 568.71051 100.32875">
  <title>logo</title>
  <g>
    <path d="M40.66551,218.784c.12422.53829.37266,2.89848.6211,5.30007a23.57088,23.57088,0,0,0,.74533,4.59616c.16562.12422,2.60863.82814,5.4657,1.57346,7.49463,1.86331,14.28535,3.93365,24.96832,7.49464,5.17585,1.73909,9.39935,3.10551,9.39935,3.0227,0-.28985-10.72437-7.122-16.81118-10.683-6.33524-3.72661-23.0636-12.215-24.05736-12.215C40.6241,217.87305,40.49988,218.2043,40.66551,218.784Z" transform="translate(-17.97457 -217.87305)" style="fill: #00adef"/>
    <path d="M120.95335,222.17936c-4.76178,2.31878-11.42828,5.87977-14.82364,7.9087-6.08681,3.561-16.81117,10.39312-16.81117,10.683,0,.08281,4.22349-1.28361,9.44075-3.0227,10.64156-3.561,17.43228-5.63133,24.92691-7.49464,2.85708-.74532,5.30008-1.44924,5.46571-1.57346a23.57211,23.57211,0,0,0,.74532-4.59616c.24844-2.40159.49688-4.76178.6211-5.30007.16563-.5797.04141-.91095-.33125-.91095C129.85582,217.87305,125.71514,219.81917,120.95335,222.17936Z" transform="translate(-17.97457 -217.87305)" style="fill: #00adef"/>
    <path d="M28.20205,230.12947c.12423.33126.53829,2.27738.91095,4.30631l.66251,3.68521,1.73909.207c.91095.12422,5.05163.41407,9.15091.66251,10.35171.62111,31.13794,3.14692,40.04041,4.8446,3.768.70392-1.44924-1.118-14.40958-5.01022-9.85483-2.9813-35.7341-9.35795-37.92866-9.35795C28.16065,229.467,28.07783,229.75681,28.20205,230.12947Z" transform="translate(-17.97457 -217.87305)" style="fill: #0097dc"/>
    <path d="M133.00274,231.5373c-12.04939,2.73285-20.41357,4.96882-30.84809,8.15715-4.886,1.49065-9.81342,2.98129-10.89,3.31255-1.118.33125-1.94612.70391-1.8219.78673a61.49664,61.49664,0,0,0,6.6665-.86955c13.29159-2.07034,27.2871-3.6438,37.10052-4.14068,2.60863-.12422,5.54851-.33126,6.45946-.45548l1.73909-.207.66251-3.68521c.37266-2.02893.78673-3.975.91095-4.30631C143.35445,229.21852,142.899,229.25993,133.00274,231.5373Z" transform="translate(-17.97457 -217.87305)" style="fill: #0097dc"/>
    <path d="M18.223,242.75855c1.73909,7.08057,7.16338,38.09429,9.772,55.85782l1.90471,13.04315,9.31654.49688a271.698,271.698,0,0,1,39.95759,5.093c2.27738.45548,4.38913.82814,4.679.82814.37267,0,.49689-7.2876.49689-35.1544V247.72737l-2.15316-.41406c-14.5752-2.89848-32.79421-4.679-54.53279-5.30008l-9.6892-.24844Z" transform="translate(-17.97457 -217.87305)" style="fill: #006fb9"/>
    <path d="M138.1786,242.17886c-24.34722,1.28361-35.81691,2.48441-49.14991,5.13445l-2.19456.41406V318.2018l1.36642-.24844c.70392-.12422,4.30631-.78673,7.99152-1.49065a271.29187,271.29187,0,0,1,38.674-4.51334l6.41806-.28985,1.532-10.76578c2.52582-17.308,8.36418-50.9304,10.14467-58.09378l.207-.91095-6.33525.08281C143.313,242.01323,139.4208,242.09605,138.1786,242.17886Z" transform="translate(-17.97457 -217.87305)" style="fill: #006fb9"/>
    <path d="M173.00567,247.868l-5.3.4v55.9l4.3.1c8.3.3,18.3-.1,21.7-.7,9.3-1.6,15-7.6,15-15.9,0-5.7-2.2-9.8-6.6-12.1l-3.3-1.8,3-1.8c8.7-5.3,6.8-18.2-3.3-22.2C194.20567,247.968,182.10567,247.068,173.00567,247.868Zm17.7,10.3c5.1,2.7,4.4,9-1.1,10.9a22.45744,22.45744,0,0,1-6,1.1c-2.9,0-2.9,0-2.9-6.5v-6.5h4.1A17.02037,17.02037,0,0,1,190.70567,258.168Zm-.5,22.4c9,3.8,6.3,13-4.2,14.3l-5.3.6v-16.3h3A20.02129,20.02129,0,0,1,190.20567,280.568Z" transform="translate(-17.97457 -217.87305)" style="fill: #0070ba"/>
    <path d="M232.20567,248.768c-6.1,2.1-11,6.8-14.2,13.2-3.8,7.7-4,20-.4,27.9,6.2,13.9,22.7,19.1,37.2,11.8,11.4-5.8,16.7-21.6,12.3-36.6-2-6.7-9.7-14.8-16-16.7C245.70567,246.768,237.20567,246.968,232.20567,248.768Zm16.3,11c4.2,2.8,6.5,9.7,6,17.9-.7,11-5,16.5-12.8,16.5-8,0-12.2-5.6-12.7-16.9-.4-6.5-.1-8.3,1.9-12.1C234.70567,257.668,241.90567,255.468,248.50567,259.768Z" transform="translate(-17.97457 -217.87305)" style="fill: #0070ba"/>
    <path d="M291.00567,248.768c-5.4,2-11.9,8.3-14.5,14.2-1.5,3.5-2.1,6.9-2.2,13.2-.1,7.4.3,9.2,2.7,14.2,3.4,6.9,8.4,11.3,15.1,13.3,13.4,4,26.2-1.1,32.4-12.9,2.4-4.6,2.7-6.2,2.7-15.1,0-9.2-.2-10.4-2.9-15.3-4.9-8.8-12.9-13.3-23.5-13.1A36.011,36.011,0,0,0,291.00567,248.768Zm16.5,11c8.1,5.3,8.2,27.1.1,32.8a13.96013,13.96013,0,0,1-6.6,1.6c-8.5,0-14.1-8.6-13.1-20.3C289.00567,260.568,298.40567,253.768,307.50567,259.768Z" transform="translate(-17.97457 -217.87305)" style="fill: #0070ba"/>
    <path d="M397.40568,248.368c-7.9,2.2-13.6,11-12,18.8.9,4.8,7.1,10.4,14.1,13,7.3,2.7,10.7,5.9,9.8,9.3-1.1,4.6-8.7,6-17.2,3.1-3.8-1.3-4.8-1.3-5.5-.3-1,1.7-2.3,8.9-1.7,9.5a55.31905,55.31905,0,0,0,7.9,2c11.7,2.6,21.7-.3,27.3-7.9,1.6-2.1,2.1-4.3,2.1-8.7,0-8.1-2-10.4-13.5-16.1-10.4-5.2-12.5-7.6-9.5-10.9,2-2.3,10.3-2.8,15.1-1,3.3,1.3,3.2,1.3,4.9-4.4l1.4-4.7-2.7-1.1C414.10568,247.468,401.90568,247.068,397.40568,248.368Z" transform="translate(-17.97457 -217.87305)" style="fill: #04adf0"/>
    <path d="M504.70568,248.068a28.9404,28.9404,0,0,0-16.3,13.6c-3.9,7.8-4,20.9-.3,28.7,5.5,11.4,18.2,16.8,31.4,13.3,5.4-1.5,7.5-2.7,11.4-6.6,6-6,8.2-12.9,7.6-23.9-.7-12.8-6.8-21.4-17.4-24.6C516.10568,247.068,508.80568,246.868,504.70568,248.068Zm15.7,13.4c6.8,7.4,6.7,22.5-.2,29.4-2.8,2.8-4,3.3-8,3.3s-5.2-.5-8-3.3c-8.2-8.2-6.7-26.8,2.6-31.9C511.60568,256.268,516.40568,257.168,520.40568,261.46795Z" transform="translate(-17.97457 -217.87305)" style="fill: #04adf0"/>
    <path d="M555.20568,248.168l-8,.5-.3,27.7-.2,27.8h13v-20h5.8c7.2,0,15-3.5,18.3-8.1,3.5-5,3.9-15.1.7-19.9C580.00568,249.368,571.70568,247.168,555.20568,248.168Zm16.8,11.8a7.94349,7.94349,0,0,1,2.1,5.8c0,5.1-3.9,8.4-10,8.4h-4.4v-17.3l5.1.5C568.10568,257.768,570.60568,258.568,572.00568,259.96795Z" transform="translate(-17.97457 -217.87305)" style="fill: #04adf0"/>
    <path d="M335.70567,276.168v28h13v-9c0-6.7.4-9.7,1.6-11.5.9-1.4,2-2.5,2.5-2.5.4,0,3.6,5,7,11.1s6.7,11.3,7.4,11.5c.7.3,4.2.4,7.8.2l6.6-.3-9.5-15.5c-5.1-8.5-9.4-15.8-9.4-16.2,0-.6,13.1-17.9,16.8-22.1,1.5-1.7,1.2-1.8-6.8-1.5l-8.3.3-7.9,11.4-7.8,11.4v-23.3h-13Z" transform="translate(-17.97457 -217.87305)" style="fill: #0070ba"/>
    <path d="M430.70568,276.168v28h13v-23h19.9l.3,11.2.3,11.3,6.3.3,6.2.3v-56.1h-13v21h-20v-21h-13Z" transform="translate(-17.97457 -217.87305)" style="fill: #04adf0"/>
  </g>
</svg>
